<svg width="270" height="89" viewBox="0 0 270 89" fill="none" xmlns="http://www.w3.org/2000/svg">
<path d="M91.99 33.3673H81.5804C80.6279 33.3673 79.7774 33.7078 79.029 34.389C78.2806 35.0701 77.8554 35.8875 77.7533 36.8411C77.6173 37.8287 77.8384 38.6631 78.4167 39.3443C78.995 39.9914 79.7604 40.3149 80.7129 40.3149H81.0701C82.4989 40.3149 83.8086 40.5874 84.9993 41.1323C86.1899 41.6772 87.1934 42.4264 88.0099 43.38C88.8603 44.2996 89.4727 45.3894 89.8469 46.6495C90.2551 47.9096 90.3742 49.2549 90.2041 50.6853C90.034 52.1157 89.5917 53.4779 88.8773 54.7721C88.197 56.0322 87.3295 57.1391 86.2749 58.0927C85.2204 59.0122 84.0297 59.7444 82.703 60.2894C81.3763 60.8343 79.9985 61.1067 78.5698 61.1067H68.1602L68.9766 54.1591H79.3862C80.3387 54.1591 81.1892 53.8355 81.9376 53.1885C82.72 52.5073 83.1793 51.6729 83.3153 50.6853C83.4174 49.7317 83.1623 48.9313 82.5499 48.2842C81.9716 47.6031 81.2062 47.2625 80.2537 47.2625H79.8965C78.4677 47.2625 77.158 46.9901 75.9674 46.4452C74.7767 45.9003 73.7732 45.168 72.9567 44.2485C72.1403 43.2949 71.528 42.188 71.1198 40.9279C70.7456 39.6338 70.6435 38.2715 70.8136 36.8411C70.9837 35.4107 71.4089 34.0654 72.0893 32.8053C72.8037 31.5452 73.6881 30.4554 74.7427 29.5358C75.7973 28.5822 76.9879 27.833 78.3146 27.2881C79.6414 26.7432 81.0191 26.4707 82.4479 26.4707H92.8575L91.99 33.3673Z" fill="#1F2937"/>
<path d="M103.012 26.4707L98.7771 61.1067H91.8373L96.0726 26.4707H103.012Z" fill="#1F2937"/>
<path d="M112.556 35.7172L109.443 61.1067H102.555L105.667 35.7172H112.556ZM113.679 26.5218L112.811 33.4183H105.923L106.79 26.5218H113.679Z" fill="#1F2937"/>
<path d="M138.578 26.4707L134.343 61.1067H119.596C118.643 61.1067 117.759 60.9364 116.942 60.5959C116.16 60.2212 115.497 59.7274 114.952 59.1144C114.408 58.4673 114 57.7351 113.728 56.9177C113.49 56.0663 113.422 55.1638 113.524 54.2102L114.646 44.9637C114.816 43.7036 115.208 42.5116 115.82 41.3877C116.432 40.2638 117.198 39.2762 118.116 38.4247C119.069 37.5733 120.123 36.9092 121.28 36.4324C122.47 35.9556 123.712 35.7172 125.005 35.7172H130.567L131.689 26.4707H138.578ZM128.271 54.2102L129.699 42.6648H124.137C123.491 42.6648 122.913 42.8862 122.402 43.3289C121.892 43.7717 121.603 44.3166 121.535 44.9637L120.719 51.8602L120.412 54.2102H128.271Z" fill="#1F2937"/>
<path d="M166.323 54.2102L165.506 61.1067H162.241C160.982 61.1067 159.825 60.8683 158.771 60.3915C157.716 59.9147 156.815 59.2506 156.066 58.3992C155.318 57.5478 154.774 56.5771 154.433 55.4873C154.093 54.3634 154.008 53.1544 154.178 51.8602L155.301 42.6648H153.719L154.586 35.7172H156.168L156.423 33.4183L157.291 26.4707H164.18L163.312 33.4183L163.057 35.7172H168.619L167.752 42.6648H162.19L161.067 51.8602C160.999 52.5073 161.152 53.0693 161.526 53.5461C161.934 53.9888 162.445 54.2102 163.057 54.2102H166.323Z" fill="#3B82F6"/>
<path d="M192.149 44.9637L191.333 51.9113C191.163 53.1714 190.771 54.3634 190.159 55.4873C189.547 56.6112 188.764 57.5989 187.812 58.4503C186.893 59.2676 185.839 59.9147 184.648 60.3915C183.491 60.8683 182.284 61.1067 181.025 61.1067H177.147C175.888 61.1067 174.732 60.8683 173.677 60.3915C172.623 59.9147 171.721 59.2676 170.973 58.4503C170.224 57.5989 169.68 56.6112 169.34 55.4873C169 54.3634 168.915 53.1714 169.085 51.9113L169.901 44.9637C170.071 43.7036 170.462 42.5116 171.075 41.3877C171.687 40.2638 172.453 39.2932 173.371 38.4758C174.324 37.6244 175.378 36.9603 176.535 36.4835C177.725 36.0067 178.95 35.7683 180.209 35.7683H184.087C185.345 35.7683 186.502 36.0067 187.557 36.4835C188.645 36.9603 189.547 37.6244 190.261 38.4758C191.01 39.2932 191.554 40.2638 191.894 41.3877C192.234 42.5116 192.319 43.7036 192.149 44.9637ZM184.444 51.9113L185.26 44.9637C185.328 44.3166 185.158 43.7717 184.75 43.3289C184.376 42.8862 183.883 42.6648 183.27 42.6648H179.392C178.746 42.6648 178.168 42.8862 177.657 43.3289C177.147 43.7717 176.858 44.3166 176.79 44.9637L175.973 51.9113C175.905 52.5584 176.058 53.1033 176.433 53.5461C176.807 53.9888 177.317 54.2102 177.963 54.2102H181.842C182.454 54.2102 183.015 53.9888 183.525 53.5461C184.07 53.1033 184.376 52.5584 184.444 51.9113Z" fill="#3B82F6"/>
<path d="M192.437 49.5103L193.355 45.3724H205.398L204.479 49.5103H198.458H192.437Z" fill="#3B82F6"/>
<path d="M234.355 26.4707L230.119 61.1067H215.372C214.42 61.1067 213.535 60.9364 212.719 60.5959C211.936 60.2212 211.273 59.7274 210.729 59.1144C210.184 58.4673 209.776 57.7351 209.504 56.9177C209.266 56.0663 209.198 55.1638 209.3 54.2102L210.423 44.9637C210.593 43.7036 210.984 42.5116 211.596 41.3877C212.209 40.2638 212.974 39.2762 213.892 38.4247C214.845 37.5733 215.9 36.9092 217.056 36.4324C218.247 35.9556 219.488 35.7172 220.781 35.7172H226.343L227.466 26.4707H234.355ZM224.047 54.2102L225.476 42.6648H219.914C219.267 42.6648 218.689 42.8862 218.179 43.3289C217.669 43.7717 217.379 44.3166 217.311 44.9637L216.495 51.8602L216.189 54.2102H224.047Z" fill="#3B82F6"/>
<path d="M256.731 44.9637L255.914 51.9113C255.744 53.1714 255.353 54.3634 254.741 55.4873C254.128 56.6112 253.346 57.5989 252.394 58.4503C251.475 59.2676 250.42 59.9147 249.23 60.3915C248.073 60.8683 246.866 61.1067 245.607 61.1067H241.729C240.47 61.1067 239.313 60.8683 238.259 60.3915C237.204 59.9147 236.303 59.2676 235.554 58.4503C234.806 57.5989 234.262 56.6112 233.922 55.4873C233.581 54.3634 233.496 53.1714 233.666 51.9113L234.483 44.9637C234.653 43.7036 235.044 42.5116 235.657 41.3877C236.269 40.2638 237.034 39.2932 237.953 38.4758C238.905 37.6244 239.96 36.9603 241.116 36.4835C242.307 36.0067 243.532 35.7683 244.79 35.7683H248.669C249.927 35.7683 251.084 36.0067 252.138 36.4835C253.227 36.9603 254.128 37.6244 254.843 38.4758C255.591 39.2932 256.136 40.2638 256.476 41.3877C256.816 42.5116 256.901 43.7036 256.731 44.9637ZM249.026 51.9113L249.842 44.9637C249.91 44.3166 249.74 43.7717 249.332 43.3289C248.958 42.8862 248.464 42.6648 247.852 42.6648H243.974C243.328 42.6648 242.749 42.8862 242.239 43.3289C241.729 43.7717 241.44 44.3166 241.372 44.9637L240.555 51.9113C240.487 52.5584 240.64 53.1033 241.014 53.5461C241.389 53.9888 241.899 54.2102 242.545 54.2102H246.423C247.036 54.2102 247.597 53.9888 248.107 53.5461C248.652 53.1033 248.958 52.5584 249.026 51.9113Z" fill="#3B82F6"/>
<rect x="44.0557" y="25.5664" width="9.14054" height="39.1737" rx="3.91737" fill="#1D4ED8"/>
<path d="M12.7148 32.3664C12.7148 29.9183 14.4152 27.7987 16.8049 27.2676L41.615 21.7543C44.8769 21.0294 47.9712 23.5116 47.9712 26.8531V62.3769C47.9712 65.6425 45.008 68.1073 41.797 67.5127L16.9869 62.9183C14.5112 62.4598 12.7148 60.3003 12.7148 57.7824V32.3664Z" fill="#3B82F6"/>
<path d="M23.1621 43.1933L27.0795 47.7636L34.9142 38.623" stroke="#F8FAFC" stroke-width="3.1339" stroke-linecap="round" stroke-linejoin="round"/>
</svg>
