<svg width="11" height="15" viewBox="0 0 11 15" fill="none" xmlns="http://www.w3.org/2000/svg">
<path d="M9.53081 3.33108H8.81757C8.10584 3.37121 7.49586 2.82783 7.45378 2.11622V2.05351C7.43362 1.71029 7.27761 1.38923 7.02023 1.16127C6.76286 0.933311 6.42531 0.81722 6.08216 0.838649H1.17568V0.587838C1.17568 0.263184 0.912492 0 0.587838 0C0.263184 0 0 0.263184 0 0.587838V13.9122C0 14.2368 0.263184 14.5 0.587838 14.5C0.912492 14.5 1.17568 14.2368 1.17568 13.9122V7.42243H2.0927C2.80443 7.38231 3.41441 7.92568 3.45649 8.6373V8.68432C3.49856 9.39594 4.10854 9.93932 4.82027 9.89919H9.52297C10.2347 9.93932 10.8447 9.39594 10.8868 8.68432V4.53027C10.8325 3.83011 10.2324 3.29937 9.53081 3.33108Z" fill="#1E293B"/>
</svg>
