<svg width="38" height="38" viewBox="0 0 38 38" fill="none" xmlns="http://www.w3.org/2000/svg">
<path fill-rule="evenodd" clip-rule="evenodd" d="M20.4572 37.4848C29.4324 37.4848 36.7083 30.2089 36.7083 21.2336C36.7083 12.2583 29.4324 4.98242 20.4572 4.98242C14.2735 4.98242 8.89649 8.4361 6.14984 13.5197C5.91961 13.8525 5.66276 14.3157 5.38027 14.8253C4.59802 16.2362 3.61918 18.0017 2.46457 18.3316C1.30382 18.6633 0.580235 19.1526 1.16058 20.8938C1.69067 22.4842 6.15306 33.7406 14.8443 36.4894C16.5937 37.1333 18.4844 37.4848 20.4572 37.4848Z" fill="#F5C2D0"/>
<path fill-rule="evenodd" clip-rule="evenodd" d="M9.67871 9.09106C13.516 9.64696 20.3985 11.1301 25.8279 17.4127C31.1382 23.5574 31.3441 26.9967 31.6461 32.0392C31.6646 32.3483 31.6834 32.6634 31.7039 32.9855C34.795 30.027 36.7201 25.86 36.7201 21.2434C36.7201 12.2681 29.4442 4.99219 20.4689 4.99219C16.3278 4.99219 12.5485 6.54105 9.67871 9.09106Z" fill="#1E293B"/>
<path d="M36.6447 18.5728L0.422655 6.50354C-0.0489862 6.31642 -0.644329 5.03123 1.83758 4.53885C3.25239 4.25817 7.49728 5.00662 8.9122 5.94218C11.5534 2.76114 19.1563 -2.5905 28.4382 1.4513C37.7201 5.49309 37.7767 14.5497 36.6447 18.5728Z" fill="#2563EB"/>
<ellipse cx="11.027" cy="17.4129" rx="1.1608" ry="1.7412" transform="rotate(-0.774191 11.027 17.4129)" fill="#334155"/>
<circle cx="29.6004" cy="22.055" r="4.0628" fill="#F5C2D0"/>
</svg>
