<svg width="24" height="24" viewBox="0 0 24 24" fill="none" xmlns="http://www.w3.org/2000/svg">
<circle cx="12" cy="12" r="10" fill="#EFF6FF"/>
<path d="M10.6562 9.93848C10.6619 9.94167 10.6694 9.94719 10.6768 9.95996L14.1299 15.9414C14.1373 15.9543 14.1388 15.9632 14.1387 15.9697C14.1385 15.9778 14.1358 15.9878 14.1299 15.998C14.1239 16.0083 14.1163 16.0154 14.1094 16.0195C14.1038 16.0229 14.0958 16.0263 14.0811 16.0264H7.17383C7.15888 16.0264 7.15014 16.0229 7.14453 16.0195C7.13768 16.0153 7.12985 16.0081 7.12402 15.998C7.11822 15.9879 7.11635 15.9778 7.11621 15.9697C7.1161 15.9632 7.11665 15.9542 7.12402 15.9414L10.5781 9.95996C10.5856 9.94701 10.5929 9.94067 10.5986 9.9375C10.6056 9.93373 10.6155 9.93071 10.627 9.93066C10.6388 9.93066 10.6492 9.93455 10.6562 9.93848Z" stroke="#94A3B8" stroke-width="1.02545"/>
<path d="M10.627 9.70302V7.99393M10.627 7.99393V6.18436C10.627 6.09966 10.7161 6.04457 10.7918 6.08245L12.672 7.02254C12.761 7.06703 12.7542 7.1962 12.6611 7.23113L10.627 7.99393Z" stroke="#94A3B8" stroke-width="1.02545"/>
<mask id="path-4-inside-1_2218_18832" fill="white">
<path fill-rule="evenodd" clip-rule="evenodd" d="M12.3606 12.8338L13.4775 10.8992L16.1417 15.5137H13.9079L14.0065 15.6846C14.2258 16.0644 13.9517 16.5392 13.5132 16.5392H16.9311C17.3697 16.5392 17.6438 16.0644 17.4245 15.6846L13.9709 9.70282C13.7516 9.32302 13.2034 9.32302 12.9842 9.70282L11.7686 11.8083L12.3606 12.8338Z"/>
</mask>
<path fill-rule="evenodd" clip-rule="evenodd" d="M12.3606 12.8338L13.4775 10.8992L16.1417 15.5137H13.9079L14.0065 15.6846C14.2258 16.0644 13.9517 16.5392 13.5132 16.5392H16.9311C17.3697 16.5392 17.6438 16.0644 17.4245 15.6846L13.9709 9.70282C13.7516 9.32302 13.2034 9.32302 12.9842 9.70282L11.7686 11.8083L12.3606 12.8338Z" fill="#94A3B8"/>
<path d="M13.4775 10.8992L14.3656 10.3864L13.4775 8.84827L12.5895 10.3864L13.4775 10.8992ZM12.3606 12.8338L11.4725 13.3465L12.3606 14.8847L13.2487 13.3465L12.3606 12.8338ZM16.1417 15.5137V16.5392H17.9179L17.0298 15.001L16.1417 15.5137ZM13.9079 15.5137V14.4883H12.1317L13.0198 16.0264L13.9079 15.5137ZM14.0065 15.6846L13.1185 16.1973H13.1185L14.0065 15.6846ZM17.4245 15.6846L18.3126 15.1719L18.3126 15.1719L17.4245 15.6846ZM13.9709 9.70282L13.0828 10.2155L13.0828 10.2155L13.9709 9.70282ZM12.9842 9.70282L12.0961 9.19009L12.0961 9.19009L12.9842 9.70282ZM11.7686 11.8083L10.8805 11.2956L10.5845 11.8083L10.8805 12.321L11.7686 11.8083ZM12.5895 10.3864L11.4725 12.321L13.2487 13.3465L14.3656 11.4119L12.5895 10.3864ZM17.0298 15.001L14.3656 10.3864L12.5895 11.4119L15.2537 16.0264L17.0298 15.001ZM13.9079 16.5392H16.1417V14.4883H13.9079V16.5392ZM13.0198 16.0264L13.1185 16.1973L14.8946 15.1719L14.7959 15.001L13.0198 16.0264ZM13.1185 16.1973C12.943 15.8935 13.1623 15.5137 13.5132 15.5137V17.5646C14.7411 17.5646 15.5086 16.2353 14.8946 15.1719L13.1185 16.1973ZM13.5132 17.5646H16.9311V15.5137H13.5132V17.5646ZM16.9311 17.5646C18.1591 17.5646 18.9265 16.2353 18.3126 15.1719L16.5364 16.1973C16.361 15.8935 16.5803 15.5137 16.9311 15.5137V17.5646ZM18.3126 15.1719L14.859 9.19009L13.0828 10.2155L16.5364 16.1973L18.3126 15.1719ZM14.859 9.19009C14.245 8.12666 12.7101 8.12666 12.0961 9.19009L13.8722 10.2155C13.6968 10.5194 13.2583 10.5194 13.0828 10.2155L14.859 9.19009ZM12.0961 9.19009L10.8805 11.2956L12.6566 12.321L13.8722 10.2155L12.0961 9.19009ZM10.8805 12.321L11.4725 13.3465L13.2487 12.321L12.6566 11.2956L10.8805 12.321Z" fill="#94A3B8" mask="url(#path-4-inside-1_2218_18832)"/>
</svg>
