<svg width="28" height="28" viewBox="0 0 28 28" fill="none" xmlns="http://www.w3.org/2000/svg">
<rect width="28" height="28" rx="8.4" fill="#DBEAFE"/>
<path d="M6.92163 16.7167L13.8366 13.8051C13.9411 13.7611 14.0589 13.7611 14.1634 13.8051L21.0784 16.7167C21.4219 16.8613 21.4219 17.3482 21.0784 17.4928L14.1634 20.4044C14.0589 20.4484 13.9411 20.4484 13.8366 20.4044L6.92164 17.4928C6.57809 17.3482 6.57809 16.8613 6.92163 16.7167Z" fill="white" fill-opacity="0.8"/>
<path d="M6.92163 13.3495L13.8366 10.4379C13.9411 10.3939 14.0589 10.3939 14.1634 10.4379L21.0784 13.3495C21.4219 13.4942 21.4219 13.981 21.0784 14.1256L14.1634 17.0372C14.0589 17.0812 13.9411 17.0812 13.8366 17.0372L6.92164 14.1256C6.57809 13.981 6.57809 13.4942 6.92163 13.3495Z" fill="#93C5FD"/>
<path d="M6.92163 9.98036L13.8366 7.0688C13.9411 7.0248 14.0589 7.0248 14.1634 7.0688L21.0784 9.98036C21.4219 10.125 21.4219 10.6118 21.0784 10.7565L14.1634 13.668C14.0589 13.712 13.9411 13.712 13.8366 13.668L6.92164 10.7565C6.57809 10.6118 6.57809 10.125 6.92163 9.98036Z" fill="#60A5FA"/>
</svg>
